<?xml version="1.0" encoding="UTF-8"?>
<svg width="168px" height="45px" viewBox="0 0 168 45" version="1.1" xmlns="http://www.w3.org/2000/svg" xmlns:xlink="http://www.w3.org/1999/xlink">
    <!-- Generator: Sketch 52.2 (67145) - http://www.bohemiancoding.com/sketch -->
    <title>icIndigoLogoWhite</title>
    <desc>Created with Sketch.</desc>
    <g id="Page-1" stroke="none" stroke-width="1" fill="none" fill-rule="evenodd">
        <g id="Artboard" transform="translate(-24.000000, -90.000000)" fill="#FFFFFF">
            <path d="M144.390422,129.463091 C140.202425,133.077545 135.27201,134.883818 129.612515,134.883273 C123.538019,134.883273 118.277086,132.720545 113.847231,128.404636 C109.455237,124.043318 107.254794,118.736727 107.254794,112.506273 C107.254794,106.274591 109.454024,100.966636 113.846018,96.6053182 C118.275873,92.2074545 123.536133,90 129.611706,90 C133.208463,90 136.367044,90.5987727 139.088797,91.8096818 C141.808664,92.9758636 144.55211,94.9699091 147.32237,97.7750455 L147.550081,98.0049545 L143.293636,102.653864 L143.049756,102.447 C140.343633,100.158136 138.262974,98.622 136.796865,97.8197727 C134.623101,96.6605455 132.231461,96.0789545 129.612515,96.0795 C125.089958,96.0789545 121.334477,97.6817727 118.327344,100.886182 C115.313205,104.097545 113.808156,107.962636 113.807078,112.506273 C113.808156,117.005455 115.311992,120.850773 118.327344,124.061727 C121.334477,127.268045 125.089419,128.868273 129.611706,128.868273 C133.79081,128.869227 137.311843,127.643455 140.198653,125.202682 C143.192581,122.678318 144.725925,119.446227 144.808117,115.483773 L130.066724,115.483773 L130.066724,109.465636 L151.425211,109.464682 L151.425211,113.425773 C151.425211,120.067364 149.083425,125.423864 144.390422,129.463091 Z M181.161039,130.371 C178.145552,133.296409 174.522386,134.761227 170.310406,134.761227 C166.141542,134.761227 162.538588,133.295455 159.523101,130.371 C156.500877,127.437955 154.990438,123.704727 154.990438,119.196818 C154.990438,114.732545 156.479318,111.021 159.46112,108.088364 C162.47526,105.118909 166.099773,103.632136 170.310406,103.631864 C174.484659,103.631864 178.084919,105.118227 181.100406,108.085773 C184.163052,111.018682 185.692354,114.729273 185.692354,119.197364 C185.692354,123.704727 184.18461,127.436864 181.161039,130.371 Z M176.865519,112.125 C175.154318,110.313545 172.978263,109.404 170.310406,109.404 C167.603474,109.404 165.408555,110.313545 163.697354,112.125545 C162.027922,113.891455 161.180406,116.238409 161.180406,119.197364 C161.180406,122.1135 162.046786,124.461 163.757987,126.2715 C165.469188,128.083227 167.645244,128.991955 170.310406,128.992227 C172.978263,128.991955 175.152971,128.083227 176.865519,126.272045 C178.576721,124.461 179.443101,122.112409 179.443101,119.197364 C179.443101,116.283545 178.576721,113.936182 176.865519,112.125 Z M102.747463,100.516773 C102.140727,101.218773 101.249555,101.544545 100.136331,101.544 C99.0912857,101.544545 98.2063117,101.201864 97.528164,100.516773 C96.9059334,99.7977273 96.5876769,98.931 96.5876769,97.9517727 C96.5876769,96.9728182 96.8993312,96.1302273 97.527625,95.4503182 C98.1700666,94.7524091 99.0559838,94.4217273 100.137409,94.4211818 C101.187036,94.4217273 102.049239,94.7772273 102.687234,95.5111364 C103.349347,96.1862727 103.687006,97.0045909 103.687006,97.9517727 C103.687006,98.9667273 103.378856,99.8305909 102.747463,100.516773 Z M97.1347224,134.148545 L97.1347224,104.2455 L103.141039,104.2455 L103.141039,134.148 L97.1347224,134.148545 Z M88.8066964,130.234227 C86.0278133,133.255909 82.4384675,134.761227 78.0656071,134.761227 C73.4483279,134.761227 69.6947338,133.152545 66.834737,129.922364 C64.143974,126.864955 62.8060032,123.034909 62.8054643,118.459636 C62.8060032,114.324 64.1939627,110.818636 66.9673214,107.970273 C69.7793506,105.0825 73.1386948,103.631864 77.0341705,103.631864 C80.118375,103.631864 82.9049383,104.319818 85.3856412,105.700227 L85.5583782,105.7965 L85.5589172,112.283318 L85.0377419,111.924409 C84.053599,111.248045 82.8810893,110.664136 81.5292403,110.1795 C80.2222597,109.660364 79.0256315,109.404 77.9440714,109.404 C75.1488847,109.404 72.9364497,110.297864 71.2691737,112.062273 C69.5989334,113.831727 68.7528994,116.176364 68.7528994,119.136818 C68.7528994,122.051864 69.6165844,124.421182 71.3316932,126.274091 C73.0825081,128.083227 75.3177143,128.991955 78.0652029,128.991955 C80.637664,128.991955 82.7507955,128.009318 84.427638,126.038318 C86.1339886,124.073591 87.0145162,121.196864 87.0145162,117.356045 L87.0145162,90.7373182 L93.0206981,90.7373182 L93.0206981,118.337864 C93.0206981,123.195545 91.6243847,127.173682 88.8066964,130.234227 Z M53.2320341,134.148 L53.2320341,116.741318 C53.2320341,114.609273 52.5678994,112.871182 51.258763,111.508091 C49.9895097,110.105045 48.4166867,109.404 46.5266851,109.404 C44.7229172,109.404 43.148612,110.099045 41.7904302,111.511773 C40.4831802,112.875545 39.8229529,114.609273 39.8229529,116.741727 L39.8229529,134.148 L33.877539,134.148 L33.877539,116.741318 C33.877539,112.899409 35.0559773,109.740682 37.4301006,107.294864 C39.8057062,104.848091 42.8473328,103.631864 46.5266851,103.631864 C50.1685795,103.632136 53.2088588,104.850136 55.6213831,107.292545 C58.0380844,109.737818 59.2384854,112.898455 59.2390244,116.741318 L59.2384854,134.148 L53.2320341,134.148 Z M24,134.148 L24,90.7373182 L30.3093474,90.7373182 L30.3100211,134.148 L24,134.148 Z M187.208696,95.2735701 L187.208696,96.6322441 L188.143478,96.6322441 C188.469565,96.6322441 188.704348,96.5769955 188.847826,96.4664982 C188.995652,96.356001 189.065217,96.1721336 189.065217,95.9140121 C189.065217,95.4870507 188.743478,95.2735701 188.1,95.2735701 L187.208696,95.2735701 Z M187.208696,97.2510286 L187.208696,99.2289292 L186.469565,99.2289292 L186.469565,94.6543435 L188.173913,94.6543435 C188.726087,94.6543435 189.134783,94.7582109 189.404348,94.9641778 C189.669565,95.1701447 189.804348,95.5051723 189.804348,95.9692607 C189.804348,96.7135701 189.413043,97.1294817 188.630435,97.2178795 L189.891304,99.2289292 L189.086957,99.2289292 L187.926087,97.2510286 L187.208696,97.2510286 Z M184.913043,96.9416364 C184.913043,97.8919126 185.213043,98.676443 185.804348,99.2952275 C186.4,99.9210839 187.130435,100.234454 188,100.234454 C188.869565,100.234454 189.604348,99.9210839 190.208696,99.2952275 C190.795652,98.676443 191.086957,97.8919126 191.086957,96.9416364 C191.086957,95.9918021 190.795652,95.2068297 190.208696,94.5880452 C189.604348,93.9621888 188.869565,93.6488187 188,93.6488187 C187.130435,93.6488187 186.4,93.9621888 185.804348,94.5880452 C185.213043,95.2068297 184.913043,95.9918021 184.913043,96.9416364 Z M184,96.9416364 C184,96.3670507 184.108696,95.8326861 184.321739,95.3394264 C184.534783,94.8461668 184.830435,94.4187634 185.208696,94.0581005 C185.578261,93.7040673 186,93.4300342 186.478261,93.234233 C186.956522,93.0393159 187.465217,92.9416364 188,92.9416364 C188.521739,92.9416364 189.030435,93.0393159 189.517391,93.234233 C190.008696,93.4300342 190.434783,93.7040673 190.804348,94.0581005 C191.182609,94.4267192 191.473913,94.8554485 191.686957,95.3451723 C191.895652,95.834896 192,96.3670507 192,96.9416364 C192,97.516222 191.895652,98.0488187 191.686957,98.5381005 C191.473913,99.0282662 191.182609,99.4574375 190.804348,99.8256143 C190.434783,100.179205 190.008696,100.453681 189.517391,100.64904 C189.030435,100.843957 188.521739,100.941636 188,100.941636 C187.465217,100.941636 186.956522,100.843957 186.478261,100.64904 C186,100.453681 185.578261,100.179205 185.208696,99.8256143 C184.830435,99.4645093 184.534783,99.037106 184.321739,98.5438463 C184.108696,98.0505866 184,97.516222 184,96.9416364 Z" id="icIndigoLogoWhite"></path>
        </g>
    </g>
</svg>